<svg width="36" height="36" viewBox="0 0 36 36" fill="none" xmlns="http://www.w3.org/2000/svg">
<path fill-rule="evenodd" clip-rule="evenodd" d="M33.75 4.5C33.75 3.90326 33.5129 3.33097 33.091 2.90901C32.669 2.48705 32.0967 2.25 31.5 2.25H4.5C3.90326 2.25 3.33097 2.48705 2.90901 2.90901C2.48705 3.33097 2.25 3.90326 2.25 4.5V31.5C2.25 32.0967 2.48705 32.669 2.90901 33.091C3.33097 33.5129 3.90326 33.75 4.5 33.75H31.5C32.0967 33.75 32.669 33.5129 33.091 33.091C33.5129 32.669 33.75 32.0967 33.75 31.5V4.5ZM0 4.5C0 3.30653 0.474106 2.16193 1.31802 1.31802C2.16193 0.474106 3.30653 0 4.5 0L31.5 0C32.6935 0 33.8381 0.474106 34.682 1.31802C35.5259 2.16193 36 3.30653 36 4.5V31.5C36 32.6935 35.5259 33.8381 34.682 34.682C33.8381 35.5259 32.6935 36 31.5 36H4.5C3.30653 36 2.16193 35.5259 1.31802 34.682C0.474106 33.8381 0 32.6935 0 31.5V4.5ZM10.125 16.875C9.82663 16.875 9.54048 16.9935 9.3295 17.2045C9.11853 17.4155 9 17.7016 9 18C9 18.2984 9.11853 18.5845 9.3295 18.7955C9.54048 19.0065 9.82663 19.125 10.125 19.125H23.1593L18.3285 23.9535C18.2239 24.0581 18.1409 24.1823 18.0843 24.3189C18.0277 24.4556 17.9986 24.6021 17.9986 24.75C17.9986 24.8979 18.0277 25.0444 18.0843 25.1811C18.1409 25.3177 18.2239 25.4419 18.3285 25.5465C18.4331 25.6511 18.5573 25.7341 18.6939 25.7907C18.8306 25.8473 18.9771 25.8764 19.125 25.8764C19.2729 25.8764 19.4194 25.8473 19.5561 25.7907C19.6927 25.7341 19.8169 25.6511 19.9215 25.5465L26.6715 18.7965C26.7763 18.692 26.8594 18.5679 26.9161 18.4312C26.9728 18.2945 27.002 18.148 27.002 18C27.002 17.852 26.9728 17.7055 26.9161 17.5688C26.8594 17.4321 26.7763 17.308 26.6715 17.2035L19.9215 10.4535C19.8169 10.3489 19.6927 10.2659 19.5561 10.2093C19.4194 10.1527 19.2729 10.1236 19.125 10.1236C18.9771 10.1236 18.8306 10.1527 18.6939 10.2093C18.5573 10.2659 18.4331 10.3489 18.3285 10.4535C18.2239 10.5581 18.1409 10.6823 18.0843 10.8189C18.0277 10.9556 17.9986 11.1021 17.9986 11.25C17.9986 11.3979 18.0277 11.5444 18.0843 11.6811C18.1409 11.8177 18.2239 11.9419 18.3285 12.0465L23.1593 16.875H10.125Z" fill="black"/>
</svg>
