<svg width="36" height="36" viewBox="0 0 36 36" fill="none" xmlns="http://www.w3.org/2000/svg">
<path fill-rule="evenodd" clip-rule="evenodd" d="M33.75 4.5C33.75 3.90326 33.5129 3.33097 33.091 2.90901C32.669 2.48705 32.0967 2.25 31.5 2.25H4.5C3.90326 2.25 3.33097 2.48705 2.90901 2.90901C2.48705 3.33097 2.25 3.90326 2.25 4.5V31.5C2.25 32.0967 2.48705 32.669 2.90901 33.091C3.33097 33.5129 3.90326 33.75 4.5 33.75H31.5C32.0967 33.75 32.669 33.5129 33.091 33.091C33.5129 32.669 33.75 32.0967 33.75 31.5V4.5ZM0 4.5C0 3.30653 0.474106 2.16193 1.31802 1.31802C2.16193 0.474106 3.30653 0 4.5 0L31.5 0C32.6935 0 33.8381 0.474106 34.682 1.31802C35.5259 2.16193 36 3.30653 36 4.5V31.5C36 32.6935 35.5259 33.8381 34.682 34.682C33.8381 35.5259 32.6935 36 31.5 36H4.5C3.30653 36 2.16193 35.5259 1.31802 34.682C0.474106 33.8381 0 32.6935 0 31.5V4.5ZM25.875 16.875C26.1734 16.875 26.4595 16.9935 26.6705 17.2045C26.8815 17.4155 27 17.7016 27 18C27 18.2984 26.8815 18.5845 26.6705 18.7955C26.4595 19.0065 26.1734 19.125 25.875 19.125H12.8407L17.6715 23.9535C17.7761 24.0581 17.8591 24.1823 17.9157 24.3189C17.9723 24.4556 18.0014 24.6021 18.0014 24.75C18.0014 24.8979 17.9723 25.0444 17.9157 25.1811C17.8591 25.3177 17.7761 25.4419 17.6715 25.5465C17.5669 25.6511 17.4427 25.7341 17.3061 25.7907C17.1694 25.8473 17.0229 25.8764 16.875 25.8764C16.7271 25.8764 16.5806 25.8473 16.4439 25.7907C16.3073 25.7341 16.1831 25.6511 16.0785 25.5465L9.3285 18.7965C9.22373 18.692 9.14061 18.5679 9.0839 18.4312C9.02718 18.2945 8.99799 18.148 8.99799 18C8.99799 17.852 9.02718 17.7055 9.0839 17.5688C9.14061 17.4321 9.22373 17.308 9.3285 17.2035L16.0785 10.4535C16.2897 10.2423 16.5763 10.1236 16.875 10.1236C17.1737 10.1236 17.4603 10.2423 17.6715 10.4535C17.8827 10.6647 18.0014 10.9513 18.0014 11.25C18.0014 11.5487 17.8827 11.8353 17.6715 12.0465L12.8407 16.875H25.875Z" fill="black"/>
</svg>
